<svg xmlns="http://www.w3.org/2000/svg" aria-hidden="true" style="position:absolute;width:0;height:0;overflow:hidden">
  <defs>
    <symbol id="icon-calendar" viewBox="0 0 32 32">
      <path d="M7 0a1 1 0 0 1 1 1v1h16V1a1 1 0 0 1 1.7-.7 1 1 0 0 1 .3.7v1h2a4 4 0 0 1 4 4v22a4 4 0 0 1-4 4H4a4 4 0 0 1-4-4V6a4 4 0 0 1 4-4h2V1a1 1 0 0 1 1-1zM4 4a2 2 0 0 0-2 2v22a2 2 0 0 0 2 2h24a2 2 0 0 0 2-2V6a2 2 0 0 0-2-2H4z"/>
      <path d="M5 8a1 1 0 0 1 1-1h20a1 1 0 0 1 1 1v2a1 1 0 0 1-1 1H6a1 1 0 0 1-1-1V8zm17 7a1 1 0 0 1 1-1h2a1 1 0 0 1 1 1v2a1 1 0 0 1-1 1h-2a1 1 0 0 1-1-1v-2zm-6 0a1 1 0 0 1 1-1h2a1 1 0 0 1 1 1v2a1 1 0 0 1-1 1h-2a1 1 0 0 1-1-1v-2zM6 21a1 1 0 0 1 1-1h2a1 1 0 0 1 1 1v2a1 1 0 0 1-1 1H7a1 1 0 0 1-1-1v-2zm6 0a1 1 0 0 1 1-1h2a1 1 0 0 1 1 1v2a1 1 0 0 1-1 1h-2a1 1 0 0 1-1-1v-2z"/>
    </symbol>
    <symbol id="icon-auto" viewBox="0 0 43 32">
      <path d="M10.67 18.67a2.67 2.67 0 1 1-5.34 0 2.67 2.67 0 0 1 5.34 0zm26.66 0a2.67 2.67 0 1 1-5.33 0 2.67 2.67 0 0 1 5.33 0zM16 16a2.67 2.67 0 0 0 0 5.33h10.67a2.67 2.67 0 0 0 0-5.33H16zm-3.04-9.93-2.54 5.1a1.37 1.37 0 0 0 .63 1.82c.22.1.45.15.7.13 2.42-.2 6.26-.45 9.58-.45s7.17.26 9.6.45a1.36 1.36 0 0 0 1.32-1.95l-2.55-5.1a1.34 1.34 0 0 0-1.19-.74H14.16a1.33 1.33 0 0 0-1.2.74z"/>
      <path d="M6.72 4.04A6.67 6.67 0 0 1 12.85 0h16.97a6.67 6.67 0 0 1 6.13 4.04l2.1 4.93c.2.46.57.85 1.02 1.07a4.82 4.82 0 0 1 2.57 3.37l.9 4.48c.09.43.13.86.13 1.3v1.1A6.62 6.62 0 0 1 40 25.63v5.04A1.33 1.33 0 0 1 38.67 32h-5.34A1.34 1.34 0 0 1 32 30.68V27.1c-3.44.12-7.32.23-10.66.23s-7.23-.1-10.67-.23v3.56A1.35 1.35 0 0 1 9.34 32H4a1.34 1.34 0 0 1-1.33-1.32v-5.05A6.63 6.63 0 0 1 0 20.29v-1.1c0-.44.04-.87.13-1.3l.9-4.48a4.82 4.82 0 0 1 2.57-3.37c.45-.22.81-.6 1.01-1.07l2.11-4.93zm6.13-1.37a4 4 0 0 0-3.67 2.42l-2.12 4.93a4.8 4.8 0 0 1-2.27 2.4 2.14 2.14 0 0 0-1.15 1.51l-.9 4.48c-.05.26-.07.52-.07.78v1.1a3.94 3.94 0 0 0 3.75 3.96c4.15.19 10.1.41 14.91.41s10.77-.22 14.92-.4A3.94 3.94 0 0 0 40 20.28v-1.1c0-.26-.03-.52-.08-.78l-.9-4.48a2.12 2.12 0 0 0-1.14-1.5 4.8 4.8 0 0 1-2.28-2.41l-2.1-4.93a4 4 0 0 0-3.69-2.42H12.85z"/>
    </symbol>
    <symbol id="icon-fuel" viewBox="0 0 32 32">
      <path d="M6 5a1 1 0 0 1 1-1h10a1 1 0 0 1 1 1v10a1 1 0 0 1-1 1H7a1 1 0 0 1-1-1V5z"/>
      <path d="M2 4a4 4 0 0 1 4-4h12a4 4 0 0 1 4 4v16a4 4 0 0 1 4 4v1a1 1 0 0 0 1.7.7 1 1 0 0 0 .3-.7v-9h-1a1 1 0 0 1-1-1V8.75a1 1 0 0 1 1-1h2.99a6.45 6.45 0 0 0-.4-2.44c-.16-.39-.44-.7-.79-.92A3.46 3.46 0 0 0 27 4a1 1 0 0 1-.7-1.7A1 1 0 0 1 27 2a5.4 5.4 0 0 1 2.82.67c.77.46 1.27 1.1 1.6 1.82.58 1.3.58 2.93.58 4.16V15a.99.99 0 0 1-.3.7 1 1 0 0 1-.7.3h-1v9a3 3 0 1 1-6 0v-1a2 2 0 0 0-2-2v8h1a1 1 0 0 1 .7 1.7 1 1 0 0 1-.7.3H1a1 1 0 0 1-.7-1.7A1 1 0 0 1 1 30h1V4zm18 0a2 2 0 0 0-2-2H6a2 2 0 0 0-2 2v26h16V4z"/>
    </symbol>
    <symbol id="icon-engine" viewBox="0 0 32 32">
      <path d="M16 9.5a6.5 6.5 0 1 0 0 13 6.5 6.5 0 0 0 0-13zM11.5 16a4.49 4.49 0 1 1 8.99 0 4.49 4.49 0 0 1-8.98 0z"/>
      <path d="M19.6 2.69c-1.06-3.58-6.14-3.58-7.2 0l-.18.63a1.75 1.75 0 0 1-2.51 1.05l-.58-.32c-3.28-1.79-6.87 1.8-5.08 5.08l.31.58a1.75 1.75 0 0 1-1.04 2.51l-.64.19c-3.58 1.05-3.58 6.13 0 7.18l.64.2a1.75 1.75 0 0 1 1.04 2.5l-.32.58c-1.78 3.28 1.8 6.87 5.09 5.08l.58-.31a1.75 1.75 0 0 1 2.51 1.04l.19.63c1.05 3.58 6.13 3.58 7.18 0l.19-.63a1.75 1.75 0 0 1 2.51-1.04l.58.32c3.28 1.78 6.87-1.8 5.08-5.09l-.31-.58a1.75 1.75 0 0 1 1.04-2.5l.63-.2c3.58-1.05 3.58-6.13 0-7.18l-.63-.19a1.75 1.75 0 0 1-1.04-2.5l.32-.6c1.78-3.27-1.8-6.86-5.09-5.07l-.58.31a1.75 1.75 0 0 1-2.51-1.04l-.19-.63zm-5.27.56a1.74 1.74 0 0 1 3.34 0l.2.64a3.75 3.75 0 0 0 5.38 2.23l.58-.32c1.53-.83 3.2.84 2.37 2.37l-.32.58a3.74 3.74 0 0 0 2.23 5.39l.64.19a1.74 1.74 0 0 1 0 3.34l-.64.2a3.75 3.75 0 0 0-2.23 5.38l.32.58c.83 1.53-.84 3.2-2.37 2.37l-.58-.32a3.73 3.73 0 0 0-5.39 2.23l-.19.64a1.74 1.74 0 0 1-3.34 0l-.2-.64a3.74 3.74 0 0 0-5.38-2.23l-.58.32c-1.53.83-3.2-.84-2.37-2.37l.32-.58a3.73 3.73 0 0 0-2.23-5.4l-.64-.18a1.74 1.74 0 0 1 0-3.35l.64-.19a3.73 3.73 0 0 0 2.23-5.38l-.32-.58c-.83-1.53.84-3.2 2.37-2.37l.58.32a3.76 3.76 0 0 0 5.39-2.23l.18-.64z"/>
    </symbol>
    <symbol id="icon-location" viewBox="0 0 26 32">
      <path d="M20.33 17.88a38.45 38.45 0 0 1-3.92 6.14A64.05 64.05 0 0 1 12 29.16a64.05 64.05 0 0 1-4.41-5.14 38.45 38.45 0 0 1-3.92-6.14C2.6 15.73 2 13.72 2 12a10 10 0 0 1 20 0c0 1.72-.61 3.73-1.67 5.88zM12 32s12-11.37 12-20a12 12 0 1 0-24 0c0 8.63 12 20 12 20z"/>
      <path d="M12 16a4 4 0 1 1 0-8 4 4 0 0 1 0 8zm0 2a6 6 0 1 0 0-12 6 6 0 0 0 0 12z"/>
    </symbol>
    <symbol id="icon-check" viewBox="0 0 32 32">
      <path d="M16 30a14 14 0 1 1 0-28 14 14 0 0 1 0 28zm0 2a16 16 0 1 0 0-32 16 16 0 0 0 0 32z"/>
      <path d="m21.94 9.94-.04.04-6.95 8.85-4.18-4.18a1.5 1.5 0 0 0-2.12 2.12l5.29 5.29c.14.14.31.25.5.33s.39.11.59.1c.2 0 .4-.04.58-.12s.35-.2.49-.35l7.98-9.98a1.5 1.5 0 0 0-2.14-2.1z"/>
    </symbol>
    <symbol id="icon-favorite" viewBox="0 0 32 32">
      <path fill="#f2f4f7" d="m16 5.5-1.43-1.48C11.2.56 5.03 1.76 2.8 6.11c-1.05 2.04-1.28 5 .63 8.77C5.27 18.5 9.1 22.85 16 27.59c6.9-4.74 10.73-9.08 12.57-12.71 1.91-3.78 1.68-6.73.63-8.77-2.23-4.35-8.4-5.55-11.77-2.09L16 5.5zM16 30C-14.67 9.74 6.56-6.08 15.65 2.29c.12.1.23.22.35.34l.35-.34C25.44-6.08 46.67 9.73 16 30z" style="fill:var(--color1, #f2f4f7)"/>
    </symbol>
    <symbol id="icon-arrow" viewBox="0 0 32 32">
      <path d="M2.3 8.3a1 1 0 0 1 1.09-.22 1 1 0 0 1 .32.21l11.3 11.3 11.28-11.3a1 1 0 0 1 1.1-.21 1 1 0 0 1 .32 1.63l-12 12a1 1 0 0 1-1.1.22 1 1 0 0 1-.32-.22l-12-12a1 1 0 0 1-.21-1.1 1 1 0 0 1 .21-.32z"/>
    </symbol>
  </defs>
</svg>
